USFL
nRows=125
nColumns=2
inDegrees=yes
endheader
time	med_gas_r	
2.3619	 54.122676	
2.43347	 54.137999	
2.50504	 54.107580	
2.57661	 53.991101	
2.64819	 54.193009	
2.71976	 54.142752	
2.79133	 54.068356	
2.8629	 54.003722	
2.93448	 54.104651	
3.00605	 54.092223	
3.07762	 54.115262	
3.14919	 54.106468	
3.22077	 54.015457	
3.29234	 54.087624	
3.36391	 54.049667	
3.43548	 54.058921	
3.50706	 54.036603	
3.57863	 54.087266	
3.6502	 54.031773	
3.72177	 54.134206	
3.79335	 54.237582	
3.86492	 54.119573	
3.93649	 54.105554	
4.00806	 53.958702	
4.07964	 54.065632	
4.15121	 54.318213	
4.22278	 54.329183	
4.29435	 54.291444	
4.36593	 54.197494	
4.4375	 54.162614	
4.50907	 53.664222	
4.58065	 47.283666	
4.65222	 41.415683	
4.72379	 39.452126	
4.79536	 37.122735	
4.86694	 33.143195	
4.93851	 32.787667	
5.01008	 32.271582	
5.08165	 31.797420	
5.15323	 31.546209	
5.2248	 31.083987	
5.29637	 30.677376	
5.36794	 29.953537	
5.43952	 29.682873	
5.51109	 29.507507	
5.58266	 29.304988	
5.65423	 28.940144	
5.72581	 28.511737	
5.79738	 28.375965	
5.86895	 28.237267	
5.94052	 28.067938	
6.0121	 27.854272	
6.08367	 27.779371	
6.15524	 27.295423	
6.22681	 27.013478	
6.29839	 27.100976	
6.36996	 27.118937	
6.44153	 27.011017	
6.5131	 26.723550	
6.58468	 26.438267	
6.65625	 26.544104	
6.72782	 26.387009	
6.7994	 26.332656	
6.87097	 26.236205	
6.94254	 26.034819	
7.01411	 25.959513	
7.08569	 25.857954	
7.15726	 25.565894	
7.22883	 25.680858	
7.3004	 25.582076	
7.37198	 25.538611	
7.44355	 25.390711	
7.51512	 25.560800	
7.58669	 25.476030	
7.65827	 25.414523	
7.72984	 25.565925	
7.80141	 25.499877	
7.87298	 25.505869	
7.94456	 25.329944	
8.01613	 25.274367	
8.0877	 25.350216	
8.15927	 25.386535	
8.23085	 25.443231	
8.30242	 25.365616	
8.37399	 25.373018	
8.44556	 25.406206	
8.51714	 25.534401	
8.58871	 25.664277	
8.66028	 25.756093	
8.73185	 25.779234	
8.80343	 25.636225	
8.875	 25.600461	
8.94657	 25.566409	
9.01815	 25.679697	
9.08972	 25.651456	
9.16129	 25.767610	
9.23286	 25.926078	
9.30444	 25.983169	
9.37601	 25.973816	
9.44758	 25.881593	
9.51915	 25.917435	
9.59073	 25.649984	
9.6623	 25.712674	
9.73387	 27.790479	
9.80544	 32.674800	
9.87702	 43.511182	
9.94859	 47.973311	
10.0202	 51.789344	
10.0917	 51.764363	
10.1633	 52.517150	
10.2349	 52.858583	
10.3065	 53.131804	
10.378	 53.206357	
10.4496	 52.381640	
10.5212	 52.322198	
10.5927	 55.090203	
10.6643	 55.685198	
10.7359	 55.446612	
10.8075	 55.061744	
10.879	 55.339679	
10.9506	 55.007535	
11.0222	 55.125817	
11.0937	 55.115812	
11.1653	 55.229941	
11.2369	 55.332097	
